<?xml version="1.0" encoding="utf-8"?>
<!-- Generator: Adobe Illustrator 27.0.0, SVG Export Plug-In . SVG Version: 6.00 Build 0)  -->
<svg version="1.1" id="Layer_1" xmlns="http://www.w3.org/2000/svg" xmlns:xlink="http://www.w3.org/1999/xlink" x="0px" y="0px"
	 viewBox="0 0 50 50" style="enable-background:new 0 0 50 50;" xml:space="preserve">
<style type="text/css">
	.st0{fill:#FFFFFF;}
</style>
<path class="st0" d="M25.39,50c-0.65,0-1.3,0-1.95,0c-0.46-0.06-0.93-0.13-1.39-0.18c-4.88-0.58-9.27-2.38-12.98-5.59
	C1.54,37.69-1.36,29.44,0.6,19.65C2.82,8.58,12.9,0.28,24.19,0.01c4.87-0.12,9.43,0.98,13.59,3.52c6.47,3.96,10.43,9.69,11.83,17.16
	c0.17,0.91,0.26,1.83,0.38,2.75c0,1.01,0,2.02,0,3.03c-0.11,0.85-0.17,1.71-0.33,2.55c-1.62,8.69-6.42,14.95-14.39,18.76
	c-1.06,0.51-2.19,0.86-3.34,1.31c0-6.24,0-12.37,0-18.55c1.79,0,3.56,0,5.35,0c0.27-2.1,0.54-4.16,0.81-6.28c-2.11,0-4.13,0-6.16,0
	c-0.02-0.12-0.03-0.18-0.03-0.25c0-1.4-0.02-2.8,0.02-4.2c0.04-1.62,0.87-2.45,2.49-2.52c1.1-0.05,2.21-0.02,3.32-0.03
	c0.17,0,0.34,0,0.51,0c0-1.91,0-3.74,0-5.7c-1.96-0.03-3.9-0.15-5.82-0.05c-0.99,0.05-2.03,0.36-2.94,0.79
	c-2.63,1.24-3.78,3.53-3.98,6.31c-0.12,1.68-0.05,3.38-0.07,5.08c0,0.19,0,0.38,0,0.62c-1.82,0-3.57,0-5.34,0c0,2.1,0,4.14,0,6.24
	c1.78,0,3.53,0,5.34,0c0,0.23,0,0.4,0,0.58c0,6.12,0,12.24,0,18.36C25.43,49.65,25.4,49.82,25.39,50z"/>
</svg>
