<svg id="Layer_1" data-name="Layer 1" xmlns="http://www.w3.org/2000/svg" xmlns:xlink="http://www.w3.org/1999/xlink" viewBox="0 0 267.72 92.76"><defs><style>.cls-1{fill:#003044;}.cls-2{fill:#f16022;}.cls-3{fill:url(#linear-gradient);}.cls-4{fill:url(#linear-gradient-2);}.cls-5{fill:url(#linear-gradient-3);}.cls-6{fill:url(#linear-gradient-4);}</style><linearGradient id="linear-gradient" x1="45.62" y1="38.66" x2="27.04" y2="17.52" gradientUnits="userSpaceOnUse"><stop offset="0" stop-color="#f16022"/><stop offset="1" stop-color="#f69e1e"/></linearGradient><linearGradient id="linear-gradient-2" x1="53.07" y1="70.14" x2="44.32" y2="40.22" gradientUnits="userSpaceOnUse"><stop offset="0" stop-color="#013046"/><stop offset="0.42" stop-color="#184a67"/><stop offset="1" stop-color="#30709a"/></linearGradient><linearGradient id="linear-gradient-3" x1="50.27" y1="34.45" x2="31.76" y2="13.38" xlink:href="#linear-gradient"/><linearGradient id="linear-gradient-4" x1="47.3" y1="37.15" x2="28.73" y2="16.01" xlink:href="#linear-gradient"/></defs><path class="cls-1" d="M83.72,46.8h1.15v6.85H83.72Z"/><path class="cls-1" d="M87.78,53.65V46.8h.61l4.29,4.77V46.8h1.14v6.85h-.61l-4.29-4.78v4.78Z"/><path class="cls-1" d="M102.15,46.79v1.07H99.82v5.79H98.67V47.86H96.36V46.79Z"/><path class="cls-1" d="M109.36,46.8v1.06h-3.54v1.5h2.74v1h-2.74v2.18h3.54v1.06h-4.68V46.8Z"/><path class="cls-1" d="M112,53.65V46.8h3.2a2.2,2.2,0,0,1,1.17.26,1.86,1.86,0,0,1,1,1.71,2,2,0,0,1-.35,1.14,1.78,1.78,0,0,1-.88.66l-.24.08,1.82,3h-1.32l-1.73-2.92h-1.52v2.92Zm3.06-4a1.62,1.62,0,0,0,.59-.08.88.88,0,0,0,0-1.65,1.39,1.39,0,0,0-.59-.08h-1.92v1.81Z"/><path class="cls-1" d="M120.16,53.65V46.8h.62l4.28,4.77V46.8h1.15v6.85h-.62l-4.29-4.78v4.78Z"/><path class="cls-1" d="M133.44,52.38h-3.26l-.49,1.27h-1.2l2.76-6.85h1.13l2.75,6.85h-1.2Zm-2.86-1.05H133l-1.23-3.16Z"/><path class="cls-1" d="M142,46.79v1.07h-2.33v5.79h-1.15V47.86h-2.32V46.79Z"/><path class="cls-1" d="M144.48,46.8h1.14v6.85h-1.14Z"/><path class="cls-1" d="M151.67,53.65a3.43,3.43,0,1,1,3.48-3.43A3.39,3.39,0,0,1,151.67,53.65Zm0-5.79A2.36,2.36,0,1,0,154,50.22,2.26,2.26,0,0,0,151.67,47.86Z"/><path class="cls-1" d="M157.72,53.65V46.8h.62l4.29,4.77V46.8h1.14v6.85h-.61l-4.29-4.78v4.78Z"/><path class="cls-1" d="M171,52.38h-3.25l-.5,1.27h-1.2l2.76-6.85h1.13l2.76,6.85h-1.2Zm-2.85-1.05h2.45l-1.22-3.16Z"/><path class="cls-1" d="M176.13,46.79v5.79h3.53v1.07H175V46.79Z"/><path class="cls-1" d="M191.59,49.51a2.24,2.24,0,0,0-2.22-1.66,2.37,2.37,0,0,0,0,4.74,2.24,2.24,0,0,0,2.23-1.68l1.09.33a3.37,3.37,0,0,1-3.32,2.41,3.43,3.43,0,1,1,0-6.86,3.34,3.34,0,0,1,3.31,2.36Z"/><path class="cls-1" d="M198.34,53.65a3.43,3.43,0,1,1,3.49-3.43A3.38,3.38,0,0,1,198.34,53.65Zm0-5.79a2.36,2.36,0,1,0,2.32,2.36A2.26,2.26,0,0,0,198.34,47.86Z"/><path class="cls-1" d="M205.54,46.79v5.79h3.54v1.07H204.4V46.79Z"/><path class="cls-1" d="M212.74,46.79v5.79h3.53v1.07h-4.68V46.79Z"/><path class="cls-1" d="M223.46,46.8v1.06h-3.53v1.5h2.74v1h-2.74v2.18h3.53v1.06h-4.67V46.8Z"/><path class="cls-1" d="M230.5,48.41a2.33,2.33,0,0,0-3.85,1.81A2.29,2.29,0,0,0,229,52.59a2.25,2.25,0,0,0,2.29-2.16h-2.4V49.37h3.46a3.38,3.38,0,1,1-1.16-1.83Z"/><path class="cls-1" d="M239.67,46.8v1.06h-3.53v1.5h2.74v1h-2.74v2.18h3.53v1.06H235V46.8Z"/><path class="cls-1" d="M144.18,59.74l-2.29,5.65h-1l-2.29-5.65h1l1.75,4.4,1.76-4.4Z"/><path class="cls-1" d="M148.12,64.35h-2.68l-.41,1h-1l2.27-5.64h.94l2.26,5.64h-1Zm-2.35-.87h2l-1-2.6Z"/><path class="cls-1" d="M151.53,59.74v4.77h2.92v.88h-3.86V59.74Z"/><path class="cls-1" d="M156.66,59.74v4.77h2.91v.88h-3.86V59.74Z"/><path class="cls-1" d="M164.69,59.75v.87h-2.91v1.24H164v.87h-2.25v1.79h2.91v.87h-3.86V59.75Z"/><path class="cls-1" d="M167.61,65.39V63.17l-2-3.42h1.09l1.41,2.46,1.41-2.46h1.09l-2,3.42v2.22Z"/><path class="cls-1" d="M176.8,65.39a2.82,2.82,0,1,1,2.87-2.82A2.79,2.79,0,0,1,176.8,65.39Zm0-4.77a1.95,1.95,0,1,0,1.9,2A1.87,1.87,0,0,0,176.8,60.62Z"/><path class="cls-1" d="M184.83,59.75v.87h-2.91v1.24h2.26v.88h-2.26v2.65H181V59.75Z"/><path class="cls-1" d="M193.11,62a1.83,1.83,0,0,0-1.83-1.36,2,2,0,1,0,1.84,2.51l.9.28a2.86,2.86,0,1,1-2.74-3.67A2.75,2.75,0,0,1,194,61.69Z"/><path class="cls-1" d="M200,59.75v5.64h-1V62.74h-2.82v2.65h-.94V59.75h.94v2.11H199V59.75Z"/><path class="cls-1" d="M205.14,64.35h-2.69l-.4,1h-1l2.27-5.64h.94l2.26,5.64h-1Zm-2.35-.87h2l-1-2.6Z"/><path class="cls-1" d="M208.12,59.75l2.44,2.94L213,59.75h.51v5.64h-.94V61.54l-2,2.45-2-2.45v3.85h-.94V59.75Z"/><path class="cls-1" d="M215.1,65.39V59.75h2.63a1.74,1.74,0,0,1,1,.22,1.54,1.54,0,0,1,.81,1.4,1.57,1.57,0,0,1-.81,1.41,1.86,1.86,0,0,1-1,.22H216v2.39Zm2.52-3.27a1.42,1.42,0,0,0,.49-.06.73.73,0,0,0,0-1.36,1.18,1.18,0,0,0-.49-.07H216v1.49Z"/><path class="cls-1" d="M220.76,59.75h.94v5.64h-.94Z"/><path class="cls-1" d="M225.88,65.39a2.82,2.82,0,1,1,2.87-2.82A2.79,2.79,0,0,1,225.88,65.39Zm0-4.77a1.95,1.95,0,1,0,1.91,2A1.87,1.87,0,0,0,225.88,60.62Z"/><path class="cls-1" d="M230.06,65.39V59.75h.51l3.53,3.94V59.75h1v5.64h-.51L231,61.45v3.94Z"/><path class="cls-1" d="M236.93,63.71a2.48,2.48,0,0,0,1.75.8c.64,0,1.17-.32,1.17-.82s-.8-.74-1.65-.91-1.76-.52-1.76-1.46.7-1.58,1.93-1.58a3.1,3.1,0,0,1,2,.78l-.56.66a2.2,2.2,0,0,0-1.48-.57c-.56,0-1,.24-1,.64s.52.57,1.36.72,2.06.45,2.06,1.72a1.88,1.88,0,0,1-2.09,1.7,3.41,3.41,0,0,1-2.35-1Z"/><rect class="cls-1" x="83.06" y="61.94" width="50.68" height="0.63"/><path class="cls-2" d="M85.64,21.83,93.56,31l7.91-9.18h2.1V40.34H99.71V29l-6.15,7.24L87.4,29V40.34H83.54V21.83Z"/><path class="cls-2" d="M107.06,21.83h3.87V40.34h-3.87Z"/><path class="cls-2" d="M124.13,22.29a9.2,9.2,0,0,1,0,17.63,11.15,11.15,0,0,1-3.36.42h-6.35V21.83h6.35A10.4,10.4,0,0,1,124.13,22.29Zm-.54,14a5.8,5.8,0,0,0,0-10.4,6.45,6.45,0,0,0-2.82-.49h-2.5v11.4h2.5A6.41,6.41,0,0,0,123.59,36.3Z"/><path class="cls-2" d="M133.31,29.6h10.08v3.54H133.31Z"/><path class="cls-2" d="M163.5,21.82,156,40.34h-4l-7.49-18.52h4.18L154,35.26l5.29-13.44Z"/><path class="cls-2" d="M174.5,37.26h-8.17l-1.13,3.08h-4l7.35-18.49h3.82l7.33,18.49h-4Zm-6.84-3.5h5.51l-2.73-7.41Z"/><path class="cls-2" d="M185.29,21.82v15h9.15v3.57h-13V21.82Z"/><path class="cls-2" d="M200.71,21.82v15h9.15v3.57h-13V21.82Z"/><path class="cls-2" d="M225.27,21.83V25.4h-9.15v3h7V32h-7v4.81h9.15v3.56h-13V21.83Z"/><path class="cls-2" d="M233.13,40.34v-7l-6.7-11.47h4.44l4.18,7.57,4.19-7.57h4.44L237,33.32v7Z"/><polygon class="cls-3" points="46.64 53.3 38.77 46.47 38.77 33.19 40.41 33.19 46.64 40.95 52.88 33.19 54.52 33.19 54.52 46.47 46.64 53.3"/><polygon class="cls-4" points="58.89 48.51 58.89 48.51 46.64 59.15 34.39 48.51 34.39 48.51 28.84 43.69 28.84 52.65 38.77 61.27 38.77 61.27 46.64 68.1 54.52 61.27 54.52 61.26 58.89 57.47 58.89 57.47 64.44 52.65 64.45 52.65 64.45 43.69 58.89 48.51"/><polygon class="cls-5" points="64.44 22.78 64.44 37.87 58.88 42.68 58.88 28.74 50.81 28.74 46.64 33.93 42.47 28.74 34.4 28.74 34.4 42.68 28.85 37.87 28.85 22.78 64.44 22.78"/><path class="cls-6" d="M66.53,20.64v33L46.64,70.91,26.76,53.65v-33H66.53m2.71-2.76H24.05V54.93l.95.82L44.89,73l1.75,1.53L48.4,73,68.29,55.75l.95-.82v-37Z"/></svg>