<?xml version="1.0" encoding="utf-8"?>
<!-- Generator: Adobe Illustrator 27.0.0, SVG Export Plug-In . SVG Version: 6.00 Build 0)  -->
<svg version="1.1" id="Layer_1" xmlns="http://www.w3.org/2000/svg" xmlns:xlink="http://www.w3.org/1999/xlink" x="0px" y="0px"
	 viewBox="0 0 50 50" style="enable-background:new 0 0 50 50;" xml:space="preserve">
<style type="text/css">
	.st0{fill:#FFFFFF;}
</style>
<g>
	<path class="st0" d="M32.56,49.97c-5.01,0-10.03,0-15.04,0c-0.31-0.03-0.61-0.07-0.92-0.08c-2-0.05-4-0.13-5.96-0.61
		c-4.11-1.01-7.17-3.34-9-7.19c-1.13-2.39-1.48-4.97-1.5-7.58c-0.06-5.38-0.1-10.75-0.08-16.13c0.01-2.45,0.03-4.91,0.57-7.32
		C1.57,6.79,3.9,3.58,7.91,1.69c2.37-1.12,4.91-1.45,7.5-1.52c6.9-0.16,13.8-0.24,20.69,0.09c2.01,0.1,3.97,0.48,5.82,1.32
		c4.58,2.07,6.98,5.74,7.74,10.6c0.13,0.86,0.2,1.73,0.3,2.6c0,6.69,0,13.39,0,20.08c-0.03,0.17-0.06,0.35-0.08,0.52
		c-0.11,0.98-0.16,1.97-0.32,2.95c-0.53,3.13-1.87,5.85-4.28,7.98c-2.61,2.31-5.76,3.23-9.16,3.46
		C34.92,49.85,33.74,49.91,32.56,49.97z M25.05,45.56c0-0.03,0-0.05,0-0.08c1.32,0,2.64,0.04,3.95-0.01
		c2.83-0.1,5.67-0.07,8.47-0.42c3.85-0.48,6.45-2.68,7.4-6.5c0.38-1.54,0.51-3.18,0.54-4.77c0.09-5.02,0.11-10.04,0.07-15.06
		c-0.01-2.03-0.11-4.06-0.36-6.07c-0.51-4-3.02-6.72-6.98-7.51c-1.71-0.34-3.49-0.44-5.24-0.47c-4.38-0.07-8.76-0.06-13.13-0.05
		c-2.5,0.01-5.01-0.02-7.5,0.41C8.5,5.7,5.9,8.1,5.13,11.87c-0.33,1.63-0.44,3.32-0.48,4.98c-0.09,4-0.12,7.99-0.07,11.99
		c0.03,2.82,0.11,5.66,0.38,8.46c0.26,2.74,1.56,5.01,3.97,6.5c1.63,1.01,3.46,1.41,5.35,1.48C17.86,45.41,21.46,45.47,25.05,45.56z
		"/>
	<path class="st0" d="M12.18,25.04c-0.03-7.05,5.74-12.83,12.84-12.84c7.08-0.01,12.79,5.67,12.85,12.77
		c0.05,7.05-5.7,12.83-12.81,12.87C17.99,37.87,12.22,32.13,12.18,25.04z M24.99,33.32c4.61,0.02,8.34-3.65,8.37-8.25
		c0.03-4.6-3.64-8.33-8.25-8.37c-4.63-0.04-8.37,3.65-8.39,8.27C16.69,29.58,20.38,33.3,24.99,33.32z"/>
	<path class="st0" d="M41.37,11.67c0.01,1.65-1.3,2.99-2.94,3.01c-1.67,0.02-3.03-1.32-3.04-2.97c-0.01-1.65,1.3-2.98,2.95-3
		C40.02,8.69,41.36,9.99,41.37,11.67z"/>
</g>
</svg>
