<?xml version="1.0" encoding="utf-8"?>
<!-- Generator: Adobe Illustrator 27.0.0, SVG Export Plug-In . SVG Version: 6.00 Build 0)  -->
<svg version="1.1" id="Layer_1" xmlns="http://www.w3.org/2000/svg" xmlns:xlink="http://www.w3.org/1999/xlink" x="0px" y="0px"
	 viewBox="0 0 50 50" style="enable-background:new 0 0 50 50;" xml:space="preserve">
<style type="text/css">
	.st0{fill:#FFFFFF;}
</style>
<path class="st0" d="M0.05,45.66c0-13.78,0-27.55,0-41.33C0.08,4.27,0.12,4.2,0.14,4.12c0.24-1.19,0.84-2.16,1.77-2.94
	c0.71-0.6,1.56-0.89,2.43-1.14c13.78,0,27.55,0,41.33,0c0.06,0.03,0.11,0.07,0.17,0.08c2.5,0.53,4.12,2.51,4.12,5.06
	c0,13.2,0,26.41,0,39.61c0,0.45-0.05,0.91-0.15,1.35c-0.58,2.3-2.57,3.79-5.03,3.79c-13.17,0-26.34,0-39.52,0
	c-0.15,0-0.29,0-0.44-0.01c-1.4-0.08-2.55-0.67-3.49-1.7C0.64,47.51,0.3,46.6,0.05,45.66z M42.44,42.44
	c0.01-0.14,0.02-0.24,0.02-0.33c0-4.61,0.01-9.23,0-13.84c-0.01-2.69-1.08-4.93-3.12-6.65c-2.67-2.26-6.43-3-9.75-0.67
	c-0.74,0.52-1.37,1.2-2.07,1.83c0-0.87,0-1.78,0-2.71c-2.53,0-5,0-7.45,0c0,7.49,0,14.93,0,22.37c2.49,0,4.94,0,7.44,0
	c0-0.22,0-0.41,0-0.6c0-4.03,0-8.06,0-12.08c0-0.32,0.01-0.65,0.04-0.97c0.21-2.16,2.61-3.76,4.68-3.11
	c1.73,0.54,2.74,1.95,2.75,3.86c0.01,4.11,0,8.22,0,12.33c0,0.19,0,0.38,0,0.59C37.49,42.44,39.94,42.44,42.44,42.44z M14.99,42.44
	c0-7.5,0-14.94,0-22.39c-2.5,0-4.96,0-7.41,0c0,7.48,0,14.92,0,22.39C10.06,42.44,12.51,42.44,14.99,42.44z M15.75,11.3
	c0.02-2.47-1.99-4.5-4.47-4.52c-2.45-0.02-4.5,2.03-4.5,4.49c0,2.45,1.98,4.45,4.45,4.48C13.72,15.78,15.74,13.79,15.75,11.3z"/>
</svg>
