<?xml version="1.0" encoding="utf-8"?>
<!-- Generator: Adobe Illustrator 27.0.0, SVG Export Plug-In . SVG Version: 6.00 Build 0)  -->
<svg version="1.1" id="Layer_1" xmlns="http://www.w3.org/2000/svg" xmlns:xlink="http://www.w3.org/1999/xlink" x="0px" y="0px"
	 viewBox="0 0 50 50" style="enable-background:new 0 0 50 50;" xml:space="preserve">
<style type="text/css">
	.st0{fill:#FFFFFF;}
</style>
<path class="st0" d="M3.02,34.16c0.13-0.96,0.2-1.94,0.4-2.89c1.21-6.01,6.34-10.94,12.38-11.98c1.53-0.26,3.07-0.35,4.62-0.18
	c0.21,0.02,0.41,0.06,0.63,0.1c0,2.75,0,5.46,0,8.22c-0.43-0.08-0.82-0.17-1.21-0.23c-4.65-0.66-8.65,2.93-8.49,7.61
	c0.13,3.7,3.12,6.75,6.91,7.05c3.63,0.29,7.08-2.35,7.74-5.93c0.11-0.62,0.15-1.26,0.15-1.89c0.01-11.11,0.02-22.22,0.02-33.34
	c0-0.23,0-0.45,0-0.71c2.73,0,5.41,0,8.04,0c0.19,1.09,0.3,2.18,0.59,3.22c1.43,5.3,6.17,9.05,11.64,9.24
	c0.46,0.02,0.56,0.15,0.56,0.59c-0.02,2.33-0.01,4.66-0.01,6.99c0,0.16,0,0.32,0,0.55c-2.32,0.03-4.52-0.36-6.68-1.08
	c-2.14-0.72-4.1-1.79-5.98-3.19c0,0.27,0,0.44,0,0.62c0.02,5.77,0.03,11.54,0.05,17.3c0.01,3.14-0.76,6.07-2.54,8.68
	c-2.89,4.25-6.92,6.59-12.05,7c-0.18,0.01-0.35,0.05-0.53,0.08c-0.33,0-0.65,0-0.98,0c-0.81-0.1-1.62-0.17-2.42-0.3
	C9.92,48.71,4.84,43.96,3.51,38.12c-0.24-1.07-0.33-2.18-0.49-3.27C3.02,34.62,3.02,34.39,3.02,34.16z"/>
</svg>
